<mxfile host="Electron" modified="2023-07-20T15:42:54.037Z" agent="Mozilla/5.0 (Windows NT 10.0; Win64; x64) AppleWebKit/537.36 (KHTML, like Gecko) draw.io/21.6.1 Chrome/112.0.5615.204 Electron/24.6.1 Safari/537.36" etag="YQzfjAGsdDGCfqALopNW" version="21.6.1" type="device">
  <diagram name="Page-1" id="lt_AyD8toXFIPzZnjtGi">
    <mxGraphModel dx="1290" dy="1852" grid="1" gridSize="10" guides="1" tooltips="1" connect="1" arrows="1" fold="1" page="1" pageScale="1" pageWidth="850" pageHeight="1100" math="0" shadow="0">
      <root>
        <mxCell id="0" />
        <mxCell id="1" parent="0" />
        <mxCell id="Z-m9A5tDZ9pNQyHN4DDu-91" value="Use case:&lt;br&gt;add generic&lt;br&gt;CMake based library" style="shape=umlActor;verticalLabelPosition=bottom;verticalAlign=top;html=1;outlineConnect=0;" vertex="1" parent="1">
          <mxGeometry x="40" y="-1040" width="30" height="60" as="geometry" />
        </mxCell>
        <mxCell id="Z-m9A5tDZ9pNQyHN4DDu-92" value="" style="endArrow=classic;html=1;rounded=0;" edge="1" parent="1">
          <mxGeometry width="50" height="50" relative="1" as="geometry">
            <mxPoint x="110" y="-1020" as="sourcePoint" />
            <mxPoint x="180" y="-1020.34" as="targetPoint" />
          </mxGeometry>
        </mxCell>
        <mxCell id="Z-m9A5tDZ9pNQyHN4DDu-93" value="&lt;b&gt;cbuild-idx.yml&lt;br&gt;cbuild.yml&lt;/b&gt;" style="rounded=0;whiteSpace=wrap;html=1;fillStyle=solid;" vertex="1" parent="1">
          <mxGeometry x="180" y="-1050" width="140" height="60" as="geometry" />
        </mxCell>
        <mxCell id="Z-m9A5tDZ9pNQyHN4DDu-94" value="&lt;b&gt;&lt;font color=&quot;#ff3333&quot;&gt;CMakeLists&lt;br&gt;Generator Tool&lt;/font&gt;&lt;br&gt;&lt;/b&gt;" style="rounded=0;whiteSpace=wrap;html=1;fillColor=#f8cecc;strokeColor=#b85450;" vertex="1" parent="1">
          <mxGeometry x="340" y="-1050" width="140" height="60" as="geometry" />
        </mxCell>
        <mxCell id="Z-m9A5tDZ9pNQyHN4DDu-95" value="&lt;b style=&quot;border-color: var(--border-color);&quot;&gt;&lt;font color=&quot;#0000ff&quot;&gt;CMSIS&lt;br&gt;Build Plate&lt;br&gt;&lt;/font&gt;&lt;br&gt;&lt;br&gt;&lt;br&gt;&lt;br&gt;&lt;br&gt;&lt;br&gt;&lt;br&gt;&lt;br&gt;&lt;br&gt;&lt;br style=&quot;border-color: var(--border-color);&quot;&gt;&lt;/b&gt;" style="rounded=0;whiteSpace=wrap;html=1;fillColor=#E0E5FF;strokeColor=#6c8ebf;" vertex="1" parent="1">
          <mxGeometry x="490" y="-1100" width="160" height="190" as="geometry" />
        </mxCell>
        <mxCell id="Z-m9A5tDZ9pNQyHN4DDu-97" value="&lt;font color=&quot;#009900&quot;&gt;&lt;b&gt;Solution&lt;br&gt;CMakeLists&lt;/b&gt;&lt;/font&gt;" style="rounded=0;whiteSpace=wrap;html=1;strokeColor=#000000;" vertex="1" parent="1">
          <mxGeometry x="505" y="-1050" width="125" height="60" as="geometry" />
        </mxCell>
        <mxCell id="Z-m9A5tDZ9pNQyHN4DDu-98" value="&lt;b style=&quot;border-color: var(--border-color);&quot;&gt;&lt;font color=&quot;#ff3333&quot;&gt;Artifacts&lt;/font&gt;&lt;br style=&quot;border-color: var(--border-color);&quot;&gt;&lt;/b&gt;" style="rounded=0;whiteSpace=wrap;html=1;fillColor=#f8cecc;strokeColor=#b85450;" vertex="1" parent="1">
          <mxGeometry x="690" y="-1050" width="60" height="60" as="geometry" />
        </mxCell>
        <mxCell id="Z-m9A5tDZ9pNQyHN4DDu-99" value="" style="endArrow=classic;html=1;rounded=0;strokeColor=#FF3333;entryX=0;entryY=0.5;entryDx=0;entryDy=0;" edge="1" parent="1" target="Z-m9A5tDZ9pNQyHN4DDu-98">
          <mxGeometry width="50" height="50" relative="1" as="geometry">
            <mxPoint x="650" y="-1020" as="sourcePoint" />
            <mxPoint x="680" y="-1020" as="targetPoint" />
            <Array as="points" />
          </mxGeometry>
        </mxCell>
        <mxCell id="Z-m9A5tDZ9pNQyHN4DDu-102" value="" style="endArrow=classic;html=1;rounded=0;exitX=1;exitY=0.5;exitDx=0;exitDy=0;" edge="1" parent="1" source="Z-m9A5tDZ9pNQyHN4DDu-93">
          <mxGeometry width="50" height="50" relative="1" as="geometry">
            <mxPoint x="450" y="-970" as="sourcePoint" />
            <mxPoint x="340" y="-1020" as="targetPoint" />
          </mxGeometry>
        </mxCell>
        <mxCell id="Z-m9A5tDZ9pNQyHN4DDu-103" value="" style="endArrow=classic;html=1;rounded=0;exitX=1;exitY=0.5;exitDx=0;exitDy=0;entryX=0;entryY=0.5;entryDx=0;entryDy=0;" edge="1" parent="1" target="Z-m9A5tDZ9pNQyHN4DDu-97">
          <mxGeometry width="50" height="50" relative="1" as="geometry">
            <mxPoint x="480" y="-1020.14" as="sourcePoint" />
            <mxPoint x="500" y="-1020.14" as="targetPoint" />
          </mxGeometry>
        </mxCell>
        <mxCell id="Z-m9A5tDZ9pNQyHN4DDu-90" value="&lt;b&gt;CMakeLists&lt;br&gt;Generic Library&lt;br&gt;&lt;/b&gt;" style="rounded=0;whiteSpace=wrap;html=1;fillColor=#f5f5f5;fontColor=#333333;strokeColor=#666666;" vertex="1" parent="1">
          <mxGeometry x="505" y="-970" width="125" height="40" as="geometry" />
        </mxCell>
        <mxCell id="Z-m9A5tDZ9pNQyHN4DDu-107" value="&lt;font color=&quot;#009900&quot;&gt;&lt;b&gt;Custom Solution CMakeLists Template&lt;/b&gt;&lt;/font&gt;" style="rounded=0;whiteSpace=wrap;html=1;dashed=1;strokeColor=#82b366;fillColor=#d5e8d4;" vertex="1" parent="1">
          <mxGeometry x="180" y="-980" width="140" height="60" as="geometry" />
        </mxCell>
        <mxCell id="Z-m9A5tDZ9pNQyHN4DDu-109" value="" style="endArrow=classic;html=1;rounded=0;entryX=-0.014;entryY=0.499;entryDx=0;entryDy=0;entryPerimeter=0;strokeColor=#009900;dashed=1;" edge="1" parent="1">
          <mxGeometry width="50" height="50" relative="1" as="geometry">
            <mxPoint x="110" y="-950" as="sourcePoint" />
            <mxPoint x="180" y="-950.33" as="targetPoint" />
          </mxGeometry>
        </mxCell>
        <mxCell id="Z-m9A5tDZ9pNQyHN4DDu-110" value="" style="endArrow=classic;html=1;rounded=0;entryX=0.5;entryY=0;entryDx=0;entryDy=0;exitX=1;exitY=0.5;exitDx=0;exitDy=0;strokeColor=#009900;dashed=1;" edge="1" parent="1" target="Z-m9A5tDZ9pNQyHN4DDu-90">
          <mxGeometry width="50" height="50" relative="1" as="geometry">
            <mxPoint x="567" y="-990.3199999999999" as="sourcePoint" />
            <mxPoint x="750" y="-990.3199999999999" as="targetPoint" />
          </mxGeometry>
        </mxCell>
        <mxCell id="Z-m9A5tDZ9pNQyHN4DDu-111" value="" style="endArrow=classic;html=1;rounded=0;entryX=0.5;entryY=1;entryDx=0;entryDy=0;exitX=1;exitY=0.5;exitDx=0;exitDy=0;strokeColor=#009900;dashed=1;" edge="1" parent="1" target="Z-m9A5tDZ9pNQyHN4DDu-94">
          <mxGeometry width="50" height="50" relative="1" as="geometry">
            <mxPoint x="320" y="-950" as="sourcePoint" />
            <mxPoint x="410" y="-980" as="targetPoint" />
            <Array as="points">
              <mxPoint x="410" y="-950" />
            </Array>
          </mxGeometry>
        </mxCell>
      </root>
    </mxGraphModel>
  </diagram>
</mxfile>
